<?xml version="1.0" encoding="utf-8"?>
<!-- Generator: Adobe Illustrator 16.0.0, SVG Export Plug-In . SVG Version: 6.00 Build 0)  -->
<!DOCTYPE svg PUBLIC "-//W3C//DTD SVG 1.1//EN" "http://www.w3.org/Graphics/SVG/1.1/DTD/svg11.dtd">
<svg version="1.1" id="Layer_1" xmlns="http://www.w3.org/2000/svg" xmlns:xlink="http://www.w3.org/1999/xlink" x="0px" y="0px"
	 width="841.89px" height="542.119px" viewBox="0 0 841.89 542.119" enable-background="new 0 0 841.89 542.119"
	 xml:space="preserve">
<linearGradient id="SVGID_1_" gradientUnits="userSpaceOnUse" x1="2440.4419" y1="1978.5029" x2="2440.4419" y2="1780.3232" gradientTransform="matrix(0 -1 -1 0 2581.5913 2581.5913)">
	<stop  offset="0" style="stop-color:#5FB1D6"/>
	<stop  offset="1" style="stop-color:#347EA6"/>
</linearGradient>
<path fill="url(#SVGID_1_)" d="M689.001,55.24c0-7.276,5.902-13.179,13.177-13.179c7.277,0,13.181,5.903,13.181,13.179
	c0,40.104,32.63,72.728,72.729,72.728c7.279,0,13.181,5.904,13.181,13.184c0,7.276-5.901,13.179-13.181,13.179
	c-40.099,0-72.729,32.628-72.729,72.727c0,7.276-5.903,13.182-13.181,13.182c-7.274,0-13.177-5.905-13.177-13.182
	c0-40.099-32.63-72.727-72.732-72.727c-7.279,0-13.181-5.903-13.181-13.179c0-7.28,5.901-13.411,13.181-13.184
	c20.186,0.635,69.871-28.088,69.871-28.088c-4.392,12.082-38.11,41.272-38.11,41.272c15.181,8.748,45.397,30.179,54.148,45.358
	c8.755-15.179,38.972-36.61,54.148-45.358c-15.177-8.753-45.394-30.189-54.148-45.368C702.178,95.783,689.001,79.015,689.001,55.24z
	"/>
<path fill="#47B19D" d="M298.833,195.086c-8.498-9.363-22.625-12.991-41.992-10.785l0.005,0.138
	c-7.92,1.108-16.619,3.109-25.838,5.249c-18.065,4.203-38.535,8.953-60.25,8.678l-0.004,0.148
	c-17.813-1.305-33.816-5.575-48.173-9.425c-9.305-2.494-18.093-4.85-26.42-6.152c-35.686-5.54-55.654,20.574-56.484,21.689
	c0,0-3.812,6.34,0.669,10.071c2.814,2.341,6.316,3.403,9.663,3.329c3.336-0.077,5.778-2.377,5.778-2.377
	c0.118-0.17,14.515-13.896,36.896-10.404c7.127,1.113,15.349,3.313,24.057,5.649c14.021,3.762,29.525,7.881,47.17,9.672
	l-15.664,65.015l-18.516,69.471l-8.322,41.927c0,0-23.882,89.462-24.856,93.553c-2.119,8.918,6.274,10.558,6.274,10.558h12.839
	c0,0,10.303-1.502,16.544-8.273c2.017-2.188-0.032-29.861,9.841-70.712c12.417-51.368,31.271-121.918,41.66-167.552
	c3.352-14.7,5.375-26.346,6.59-34.517c16.888-1.652,32.536-5.272,45.821-8.359l21.405-3.787c12.165-1.384,20.65-3.11,23.775,1.611
	c9.457,14.339-17.845,19.37-17.845,19.37c-16.792,1.157-30.698-1.72-35.726-4.532c-10.35-4.282-10.576,1.946-10.576,1.946
	c-0.817,2.259,1.526,7.142,5.939,9.89c4.956,3.097,17.313,8.299,32.502,8.255c0,0,38.909,0.221,48.742-18.508
	C311.643,208.039,298.833,195.086,298.833,195.086z"/>
<g>
	<g>
		<path fill="#47B19D" d="M624.748,456.432c-4.384,5.649-16.038,20.677-38.362,20.677c-0.682-0.004-16.739-0.191-28.393-12.112
			c-7.925-8.107-11.801-19.582-11.513-34.102l1.068-1.78c21.188-11.895,48.145-33.221,60.24-57.396
			c5.196-10.387,5.577-23.588,0.945-32.859c-3.113-6.218-11.938-16.657-36.039-16.657c-15.844,0-31.316,11.061-43.474,22.454
			c-2.666,2.501-4.331,6.934-6.08,16.009c-1.746,9.077,6.072,5.156,6.072,5.156c10.878-9.179,27.512-19.996,41.935-19.996
			c1.485,0.154,12.603,1.56,15.444,8.642c1.607,4.007,0.149,8.736-4.323,14.062c-25.068,29.801-33.442,36.138-47.454,41.183
			c-10.615,3.815-15.485,11.783-16.679,14.023c0.93,3.772,5.435,21.462,12.019,37.798c7.721,19.176,20.031,38.774,52.809,38.774
			c22.715,0,40.559-10.896,51.592-31.512c0,0,2.894-6.774,0.242-10.721c-0.839-1.254-2.878-5.353-5.334-5.353
			C627.003,452.722,624.748,456.432,624.748,456.432z"/>
	</g>
</g>
<g>
	<path fill="#47B19D" d="M210.731,501.585c-12.598,0-15.99-5.609-17.686-12.532c-4.625-18.85,4.016-35.751,8.674-68.11
		c5.689-39.506,22.843-86.58,27.745-94.121c4.323-6.652,7.473-5.724,7.473-5.724l11.128-0.17c0,0,11.126,0,7.843,9.129
		c-1.84,5.122-19.205,70.668-23.607,94.162c-5.206,27.821-8.179,43.367-8.179,51.221c0,0,2.643,10.473,2.905,16.751
		C227.288,498.476,216.227,500.699,210.731,501.585z"/>
</g>
<g>
	<path fill="none" d="M565.125,229.675c-15.778,0-22.93,16.103-27.842,31.854c-0.418,1.334-0.553,3.541,0.446,5.387
		c0.698,1.29,1.814,2.207,3.065,2.555c4.322,1.542,8.45,2.323,12.271,2.323c11.206,0,19.67-6.376,25.153-18.953l0.252-0.577
		c1.725-3.79,3.264-11.663,0.053-16.649C575.141,230.382,569.857,229.675,565.125,229.675z"/>
	<path fill="#47B19D" d="M550.707,290.448c25.937-0.715,49.369-20.394,54.135-30.872c3.264-7.176,6.264-25.386-1.176-36.953
		c-3.942-6.109-11.269-17.476-41.967-17.476c-27.834,0-42.349,32.852-48.523,52.43l-1.047,3.325l-3.198-1.387
		c-18.209-7.909-33.917-17.238-34.079-17.338c-0.621-0.246-8.403-3.239-15.56-3.239c-6.012,0-10.447,2.025-15.562,4.237
		c-6.698,2.893-11.078,14.294-13.943,20.941c-1.94,4.507,2.688,10.208,2.688,10.208s2.723,3.318,6.291-1.246
		c1.478-3.206,9.595-14.603,10.212-15.026c2.802-1.944,7.323-3.106,12.085-3.106c2.094,0,5.143,0.234,7.793,1.343
		c5.581,2.728,25.662,16.47,36.791,20.974c2.326,0.974,1.88,3.643,1.88,3.643c-0.276,1.161-27.878,116.47-31.6,133.173
		l-12.876,37.518c-9.705,26.912-37.011,33.792-37.668,33.752l-0.99-0.041c-9.553,0-12.882-2.28-16.654-6.771
		c-5.07-6.039,2.504-49.188,3.028-52.187l12.104-49.951c1.839-12.218-0.134-34.295-11.732-47.666
		c-7.934-9.141-19.182-14.019-32.636-14.019c-14.189,0-26.259,6.543-36.104,15.302l2.056-6.531c0.732-3.121-1.227-6.267-4.344-6.993
		l-17.238-0.549c-3.121-0.729-6.265,1.226-6.994,4.349l-37.309,159.991l-4,10.646c-0.729,3.121,2.973,8.729,6.094,9.458
		l10.797,0.105c3.117,0.728,9.677-2.954,10.405-6.071l5.03-20.146l17.273-85.306c0.709-1.011,24.567-50.292,54.334-50.292
		c8.582,0,12.375,3.251,14.476,5.694c7.81,9.068,4.83,28.105,2.827,41.82l-11.952,56.356c-2.338,13.09-3.808,39.621,5.342,47.742
		c9.939,8.825,17.149,11.29,34.058,11.366c0,0,13.221-2.756,27.119-12.876c0.405,2.667,3.543,6.782,6.896,9.775
		c3.215,0.544,12.645,1.936,18.156,2.054c5.967,0.125,8.99-4.169,9.522-6.511l10.525-46.53c2.16-9.98,4.315-19.929,6.117-28.034
		c5.643-25.293,31.871-124.81,32.128-125.796c0.551-2.11,2.264-4.579,5.272-4.579C538.988,289.16,548.332,290.513,550.707,290.448z
		 M578.47,252.264l-0.252,0.577c-5.483,12.577-13.947,18.953-25.153,18.953c-3.82,0-7.948-0.781-12.271-2.323
		c-1.251-0.348-2.367-1.265-3.065-2.555c-0.999-1.846-0.864-4.053-0.446-5.387c4.912-15.752,12.063-31.854,27.842-31.854
		c4.732,0,10.017,0.707,13.398,5.939C581.734,240.601,580.195,248.474,578.47,252.264"/>
</g>
</svg>
