<?xml version="1.0" encoding="utf-8"?>
<!-- Generator: Adobe Illustrator 18.1.0, SVG Export Plug-In . SVG Version: 6.00 Build 0)  -->
<!DOCTYPE svg PUBLIC "-//W3C//DTD SVG 1.1//EN" "http://www.w3.org/Graphics/SVG/1.1/DTD/svg11.dtd">
<svg version="1.1" id="Layer_1" xmlns="http://www.w3.org/2000/svg" xmlns:xlink="http://www.w3.org/1999/xlink" x="0px" y="0px"
	 viewBox="-339 135.8 280 280" enable-background="new -339 135.8 280 280" xml:space="preserve">
<path fill="#FFFFFF" d="M-212.2,189.8c0-7.3,5.9-13.2,13.2-13.2c7.3,0,13.2,5.9,13.2,13.2c0,40.1,32.6,72.7,72.7,72.7
	c7.3,0,13.2,5.9,13.2,13.2c0,7.3-5.9,13.2-13.2,13.2c-40.1,0-72.7,32.6-72.7,72.7c0,7.3-5.9,13.2-13.2,13.2
	c-7.3,0-13.2-5.9-13.2-13.2c0-40.1-32.6-72.7-72.7-72.7c-7.3,0-13.2-5.9-13.2-13.2c0-7.3,5.9-13.4,13.2-13.2
	c20.2,0.6,69.9-28.1,69.9-28.1c-4.4,12.1-38.1,41.3-38.1,41.3c15.2,8.7,45.4,30.2,54.1,45.4c8.8-15.2,39-36.6,54.1-45.4
	c-15.2-8.8-45.4-30.2-54.1-45.4C-199,230.4-212.2,213.6-212.2,189.8z"/>
</svg>
