<?xml version="1.0" encoding="utf-8"?>
<!-- Generator: Adobe Illustrator 18.1.1, SVG Export Plug-In . SVG Version: 6.00 Build 0)  -->
<!DOCTYPE svg PUBLIC "-//W3C//DTD SVG 1.1//EN" "http://www.w3.org/Graphics/SVG/1.1/DTD/svg11.dtd">
<svg version="1.1" id="Tink" xmlns="http://www.w3.org/2000/svg" xmlns:xlink="http://www.w3.org/1999/xlink" x="0px" y="0px"
	 viewBox="0 0 1024 1024" enable-background="new 0 0 1024 1024" xml:space="preserve">
<rect x="0" fill="#506952" width="1024" height="1024"/>
<circle fill="#FFFFFF" cx="831.5" cy="318" r="113.2"/>
<path fill="#FFFFFF" d="M765.4,429.1c-11.3,47.1-53.8,82.4-103.9,82.4c-59.4,0-107-48.1-107-107c0-59.4,48.1-107,107-107
	c13.8,0,26.6,2.6,38.4,7.2c-62.5-74.8-156.2-122.9-261.1-122.9c-187.4,0-339.5,152.1-339.5,339.5s152.1,339.5,339.5,339.5
	s339.5-152.1,339.5-339.5C778.2,489.5,773.6,458.2,765.4,429.1z"/>
</svg>
