<?xml version="1.0" encoding="utf-8"?>
<!-- Generator: Adobe Illustrator 18.1.1, SVG Export Plug-In . SVG Version: 6.00 Build 0)  -->
<!DOCTYPE svg PUBLIC "-//W3C//DTD SVG 1.1//EN" "http://www.w3.org/Graphics/SVG/1.1/DTD/svg11.dtd">
<svg version="1.1" id="Layer_1" xmlns="http://www.w3.org/2000/svg" xmlns:xlink="http://www.w3.org/1999/xlink" x="0px" y="0px"
	 viewBox="0 0 1024 1024" enable-background="new 0 0 1024 1024" xml:space="preserve">
<path fill="#FFFFFF" d="M862,512c0-193.2-156.8-350.1-350-350.1S162,318.7,162,512c0,184.4,142.5,335.4,323.1,349.1
	c-15.4-18.9-34.6-44.2-51.6-68.3c-28.5-40.2-62.6-100.3-63.8-160.5c-1-44.6,9.4-69.1,68.2-161.9c23.1-36.2,38.3-98.4,36.2-111.7
	c-2.4-13.3,21.5,20.1,30.4,42.5c11.9,29.7,10.1,52.3-11.9,113.8c-10.2,29.2-27.6,76.4-10.2,97.4c-2.1-2.5,55.7-61.4,69-122.3
	c10.2-46.5,6-108.7-14.3-154.7c-17.5-40.2-38.8-73.2-34.4-126.5c1.8-22.2,8-44.2,8.7-45.3c12.9,32.5,18.9,44.4,23.6,53.5
	c23.6,44.6,72.6,110.8,95.8,155.9c23.1,44.6,41.1,118.9,14.3,194.5c-25.9,74.7-51.6,100-78.3,160.1c-19.9,44.9-36.9,100-45.3,134.3
	C710.4,856.9,862,702.3,862,512"/>
</svg>
