<?xml version="1.0" encoding="utf-8"?>
<!-- Generator: Adobe Illustrator 18.1.1, SVG Export Plug-In . SVG Version: 6.00 Build 0)  -->
<!DOCTYPE svg PUBLIC "-//W3C//DTD SVG 1.1//EN" "http://www.w3.org/Graphics/SVG/1.1/DTD/svg11.dtd">
<svg version="1.1" id="Layer_1" xmlns="http://www.w3.org/2000/svg" xmlns:xlink="http://www.w3.org/1999/xlink" x="0px" y="0px"
	 viewBox="0 0 1024 1024" preserveAspectRatio="xMidYMid meet" enable-background="new 0 0 1024 1024" xml:space="preserve">
<path fill="#FFFFFF" d="M940,512.1C940,346.5,805.6,212,640,212S340,346.4,340,512.1c0,158.1,122.1,287.5,276.9,299.2
	c-13.2-16.2-29.7-37.9-44.2-58.5c-24.4-34.5-53.7-86-54.7-137.6c-0.9-38.2,8.1-59.2,58.5-138.8c19.8-31,32.8-84.3,31-95.7
	c-2.1-11.4,18.4,17.2,26.1,36.4c10.2,25.5,8.7,44.8-10.2,97.5c-8.7,25-23.7,65.5-8.7,83.5c-1.8-2.1,47.7-52.6,59.1-104.8
	c8.7-39.9,5.1-93.2-12.3-132.6c-15-34.5-33.3-62.7-29.5-108.4c1.5-19,6.9-37.9,7.5-38.8c11.1,27.9,16.2,38.1,20.2,45.9
	c20.2,38.2,62.2,95,82.1,133.6c19.8,38.2,35.2,101.9,12.3,166.7c-22.2,64-44.2,85.7-67.1,137.2c-17.1,38.5-31.6,85.7-38.8,115.1
	C810.1,807.7,940,675.2,940,512.1"/>
</svg>
