<?xml version="1.0" encoding="utf-8"?>
<!-- Generator: Adobe Illustrator 18.1.1, SVG Export Plug-In . SVG Version: 6.00 Build 0)  -->
<!DOCTYPE svg PUBLIC "-//W3C//DTD SVG 1.1//EN" "http://www.w3.org/Graphics/SVG/1.1/DTD/svg11.dtd">
<svg version="1.1" id="Stad_Antwerpen" xmlns="http://www.w3.org/2000/svg" xmlns:xlink="http://www.w3.org/1999/xlink" x="0px"
	 y="0px" viewBox="0 0 1024 1024" enable-background="new 0 0 1024 1024" xml:space="preserve">
<rect y="0" fill="#CF0039" width="1024" height="1024"/>
<path fill="#FFFFFF" d="M646,772.6l-40.9-116.1H414.6l-40.9,116.1H262.1l199.4-520.8h101.2l197.9,520.8H646z M535.9,463.1
	c-10.4-30.5-20.8-61.7-26-81.1c-5.2,19.3-15.6,50.6-26,81.1l-33.5,94.5h119L535.9,463.1z"/>
<path fill="#F28B00" d="M240.6,526.6c-2.5,7.3-10.4,11.2-17.7,8.8L77.7,486.6c-7.3-2.4-11.2-10.4-8.8-17.7L81,433
	c2.5-7.3,10.4-11.2,17.7-8.8L243.8,473c7.3,2.5,11.2,10.4,8.8,17.7L240.6,526.6z"/>
<path fill="#F28B00" d="M232.6,640.6c2.4,7.3-1.5,15.2-8.8,17.7L120.4,695c-7.3,2.4-15.2-1.5-17.7-8.8l-12.1-36
	c-2.4-7.3,1.5-15.2,8.8-17.7l103.4-36.7c7.3-2.4,15.2,1.5,17.7,8.8L232.6,640.6z"/>
<path fill="#F28B00" d="M204.2,308.5c-6.1,4.7-7.2,13.5-2.5,19.6l65.6,88c4.7,6.1,13.5,7.2,19.6,2.5l30-23.2
	c6.1-4.7,7.2-13.5,2.5-19.6l-65.6-88.1c-4.7-6.1-13.5-7.2-19.6-2.5L204.2,308.5z"/>
<path fill="#F28B00" d="M781.1,526.6c2.5,7.3,10.4,11.2,17.7,8.8L944,486.6c7.3-2.4,11.2-10.4,8.8-17.7l-12.1-36
	c-2.5-7.3-10.4-11.2-17.7-8.8L777.8,473c-7.3,2.5-11.2,10.4-8.8,17.7L781.1,526.6z"/>
<path fill="#F28B00" d="M789,640.6c-2.5,7.3,1.5,15.2,8.8,17.7L901.3,695c7.3,2.4,15.2-1.5,17.7-8.8l12.1-36
	c2.5-7.3-1.5-15.2-8.8-17.7l-103.4-36.7c-7.3-2.4-15.2,1.5-17.7,8.8L789,640.6z"/>
<path fill="#F28B00" d="M817.5,308.5c6.1,4.7,7.2,13.5,2.5,19.6l-65.6,88c-4.7,6.1-13.5,7.2-19.6,2.5l-30-23.2
	c-6.1-4.7-7.2-13.5-2.5-19.6l65.6-88.1c4.7-6.1,13.5-7.2,19.6-2.5L817.5,308.5z"/>
</svg>
